<?xml version="1.0" encoding="utf-8" ?><svg xmlns="http://www.w3.org/2000/svg" xmlns:xlink="http://www.w3.org/1999/xlink" width="515" height="484" viewBox="0 0 515 484"><clipPath id="cl_4"><rect width="514.66669" height="484"/></clipPath><g clip-path="url(#cl_4)"><path fill="white" transform="matrix(1.33333 0 0 1.33333 -638.667 -286.667)" d="M0 0L1344 0L1344 768L0 768L0 0Z"/><path transform="matrix(1.33333 0 0 1.33333 -638.667 -286.667)" d="M662.555 225.173L681.009 225.215L681.16 289.272C711.429 290.177 738.153 298.869 765.107 311.853C774.606 302.323 783.972 292.661 793.203 282.872C797.81 286.765 802.468 291.594 806.782 295.888C798.571 304.592 790.044 313.118 781.771 321.902C809.067 339.403 832.492 362.308 850.604 389.205C830.722 418.44 808.895 438.137 779.825 457.421C788.175 466.106 797.387 474.952 805.975 483.475C801.643 487.746 797.158 491.995 792.774 496.227C783.484 487.812 772.485 476.12 763.242 467.032C737.957 479.622 709.304 487.924 680.942 488.522L681.123 513.982C686.508 517.206 689.947 519.983 692.267 526.122C694.283 531.573 694.025 537.605 691.551 542.863C688.748 548.912 684.251 552.159 678.208 554.444C674.065 555.432 671.059 555.731 666.802 554.831C661.335 553.71 656.553 550.426 653.544 545.725C650.346 540.783 649.284 534.757 650.599 529.019C652.294 521.696 656.392 517.956 662.482 514.25C662.231 506.172 662.422 496.92 662.406 488.753C632.367 486.848 607.408 480.768 580.464 466.733C571.205 476.154 560.534 487.653 550.865 496.356C546.45 492.332 542.018 487.863 537.729 483.67C546.305 474.809 554.949 466.015 563.661 457.289C531.317 433.923 517.142 423.292 493.108 389.248C510.921 362.511 534.092 339.767 561.154 322.458C554.243 314.575 542.885 303.865 535.243 296.202C539.155 291.888 544.024 287.228 548.188 283.059C558.095 292.722 567.591 302.891 577.644 312.619C600.343 299.085 636.226 290.606 662.482 289.217C662.876 268.203 662.56 246.257 662.555 225.173Z"/><path fill="white" transform="matrix(1.33333 0 0 1.33333 -638.667 -286.667)" d="M663.205 316.089C703.57 311.32 740.104 340.317 744.636 380.718C749.168 421.12 719.966 457.494 679.549 461.791C639.463 466.054 603.461 437.136 598.967 397.066C594.472 356.996 623.172 320.818 663.205 316.089Z"/><path fill="#AC1014" transform="matrix(1.33333 0 0 1.33333 -638.667 -286.667)" d="M666.244 349.339L674.148 349.108C672.043 356.018 671.755 362.738 674.776 369.454C677.403 375.305 682.285 379.845 688.311 382.04C696.722 385.126 703.24 383.287 710.864 379.855C714.917 402.798 704.693 420.835 682.11 427.696C681.834 427.77 681.557 427.839 681.278 427.902C670.381 430.412 658.933 428.434 649.509 422.415C640.731 416.684 634.646 407.643 632.64 397.352C627.892 373.566 643.041 353.959 666.244 349.339Z"/><path fill="#AC1014" transform="matrix(1.33333 0 0 1.33333 -638.667 -286.667)" d="M694.321 341.665C703.553 339.894 712.465 345.971 714.191 355.214C715.918 364.458 709.801 373.343 700.552 375.026C691.364 376.699 682.553 370.629 680.838 361.447C679.123 352.265 685.149 343.423 694.321 341.665Z"/><path fill="white" transform="matrix(1.33333 0 0 1.33333 -638.667 -286.667)" d="M611.498 317.72L612.399 317.858C612.116 319.298 605.936 324.505 604.452 326.123C581.988 350.621 574.153 385.097 584.274 416.889C590.39 436.102 600.018 448.03 614.944 461.477C598.303 455.743 587.204 450.049 572.359 441.18C548.293 425.772 533.719 411.22 516.223 389.407C542.922 354.235 570.634 333.694 611.498 317.72Z"/><path fill="white" transform="matrix(1.33333 0 0 1.33333 -638.667 -286.667)" d="M730.37 317.453C734.928 318.059 745.432 322.889 749.776 324.966C781.688 340.224 806.109 361.487 827.484 389.382C811.425 410.18 795.227 424.978 773.542 439.615C758.324 449.427 746.239 455.225 729.243 461.341C732.299 458.576 735.251 455.696 738.091 452.709C755.287 434.964 764.591 411.025 763.892 386.322C763.081 357.721 750.582 336.584 730.37 317.453Z"/></g></svg>