<?xml version="1.0" encoding="utf-8" ?><svg xmlns="http://www.w3.org/2000/svg" xmlns:xlink="http://www.w3.org/1999/xlink" width="520" height="484" viewBox="0 0 520 484"><clipPath id="cl_3"><rect x="6.1035156e-05" width="520" height="484"/></clipPath><g clip-path="url(#cl_3)"><path fill="white" transform="matrix(1.33333 0 0 1.33333 -629.333 -286.667)" d="M0 0L1344 0L1344 768L0 768L0 0Z"/><path transform="matrix(1.33333 0 0 1.33333 -629.333 -286.667)" d="M662.504 226.48L681.078 226.521L681.055 290.543C712.006 291.799 737.467 299.778 764.966 313.214C774.456 303.635 783.885 293.996 793.253 284.297C797.428 287.87 802.679 293.245 806.731 297.162L781.712 323.187C809.025 340.782 832.459 363.768 850.58 390.738C830.874 419.111 808.683 440.098 779.751 458.802L806.051 484.865C802.093 489.036 797.016 493.698 792.823 497.749C783.009 488.487 772.906 478.031 763.304 468.447C734.561 482.618 712.646 488.123 681.065 490.258L681.19 515.416C685.741 518.084 689.043 520.966 691.459 525.741C693.985 530.741 694.396 536.548 692.6 541.855C690.251 548.834 685.763 552.499 679.466 555.638C669.366 558.106 659.478 556.558 653.426 547.245C650.24 542.333 649.192 536.334 650.524 530.633C652.244 523.338 656.458 519.376 662.514 515.571C662.267 507.522 662.419 498.538 662.39 490.418C630.12 487.721 609.837 482.852 580.616 468.247C570.834 478.214 560.969 488.1 551.023 497.904C546.665 493.971 541.988 489.189 537.749 485.042C546.254 476.545 555.698 467.436 563.713 458.601C534.225 439.805 513.07 419.132 493.044 390.632C510.915 363.863 534.095 341.053 561.144 323.614C553.4 315.238 543.405 305.746 535.228 297.53L548.235 284.3C557.524 293.914 568.041 304.668 577.712 313.768C601.678 300.279 635.219 291.858 662.493 290.541L662.504 226.48Z"/><path fill="white" transform="matrix(1.33333 0 0 1.33333 -629.333 -286.667)" d="M664.035 317.395C704.173 313.123 740.213 342.107 744.661 382.235C749.109 422.363 720.292 458.54 680.194 463.166C639.844 467.822 603.4 438.777 598.924 398.398C594.448 358.018 623.646 321.694 664.035 317.395Z"/><path transform="matrix(1.33333 0 0 1.33333 -629.333 -286.667)" d="M665.479 350.683L674.139 350.303C672.021 357.124 671.931 364.064 674.909 370.662C677.525 376.495 682.4 381.013 688.414 383.177C696.641 386.167 703.489 384.503 711.018 380.986C714.687 404.003 704.832 421.236 682.616 428.77C671.836 431.497 660.605 430.264 650.978 424.553C641.848 419.158 635.311 410.275 632.872 399.953C627.142 375.814 642.051 356.006 665.479 350.683Z"/><path transform="matrix(1.33333 0 0 1.33333 -629.333 -286.667)" d="M693.591 342.872C702.695 340.701 711.837 346.315 714.022 355.418C716.207 364.521 710.61 373.674 701.513 375.875C692.395 378.081 683.217 372.466 681.027 363.342C678.837 354.218 684.465 345.047 693.591 342.872Z"/><path fill="white" transform="matrix(1.33333 0 0 1.33333 -629.333 -286.667)" d="M611.514 319.027L612.446 319.119C612.09 320.564 605.431 326.537 603.799 328.348C587.136 346.779 578.586 371.139 580.074 395.943C581.524 424.14 594.417 444.625 614.81 462.995C598.572 457.141 586.817 451.317 572.195 442.338C548.076 426.785 533.688 412.692 516.199 390.693C539.762 356.917 573.698 333.945 611.514 319.027Z"/><path fill="white" transform="matrix(1.33333 0 0 1.33333 -629.333 -286.667)" d="M730.176 318.718C734.68 319.523 744.774 324.001 749.075 326.044C781.876 341.622 805.3 362.577 827.481 390.738C810.465 412.314 796.05 425.592 773.514 441.082C757.91 451.25 746.067 456.686 728.917 462.995C732.363 459.887 735.692 456.65 738.896 453.292C755.608 435.608 764.609 412.004 763.915 387.679C762.981 359.028 750.52 337.87 730.176 318.718Z"/></g></svg>